<svg width="32" height="32" viewBox="0 0 32 32" fill="none" xmlns="http://www.w3.org/2000/svg">
<rect width="32" height="32" rx="10.0368" fill="#FF5B00"/>
<path d="M8.53601 15.4028V19.1583C8.53601 22.9137 10.0415 24.4192 13.797 24.4192H18.3052C22.0606 24.4192 23.5661 22.9137 23.5661 19.1583V15.4028" stroke="white" stroke-width="1.8819" stroke-linecap="round" stroke-linejoin="round"/>
<path d="M16.0553 16.0552C17.5859 16.0552 18.715 14.809 18.5645 13.2784L18.0124 7.69122H14.1064L13.5461 13.2784C13.3955 14.809 14.5246 16.0552 16.0553 16.0552Z" stroke="white" stroke-width="1.8819" stroke-linecap="round" stroke-linejoin="round"/>
<path d="M21.333 16.0552C23.0225 16.0552 24.2604 14.6835 24.0931 13.0024L23.8589 10.7023C23.5578 8.52762 22.7214 7.69122 20.53 7.69122H17.979L18.5645 13.5544C18.7067 14.9344 19.9529 16.0552 21.333 16.0552Z" stroke="white" stroke-width="1.8819" stroke-linecap="round" stroke-linejoin="round"/>
<path d="M10.7358 16.0552C12.1159 16.0552 13.3621 14.9344 13.496 13.5544L13.68 11.7059L14.0814 7.69122H11.5304C9.33905 7.69122 8.50265 8.52762 8.20154 10.7023L7.97571 13.0024C7.80843 14.6835 9.04631 16.0552 10.7358 16.0552Z" stroke="white" stroke-width="1.8819" stroke-linecap="round" stroke-linejoin="round"/>
<path d="M16.0552 22.0773C13.8448 22.0773 12.0405 20.5437 12.0405 18.6648C12.0405 18.3356 12.3617 18.0626 12.749 18.0626C13.1363 18.0626 13.4575 18.3356 13.4575 18.6648C13.4575 19.8853 14.6194 20.8729 16.0552 20.8729C17.4911 20.8729 18.653 19.8853 18.653 18.6648C18.653 18.3356 18.9742 18.0626 19.3615 18.0626C19.7488 18.0626 20.07 18.3356 20.07 18.6648C20.07 20.5437 18.2657 22.0773 16.0552 22.0773Z" fill="white"/>
</svg>
