<svg width="66" height="76" viewBox="0 0 66 76" fill="none" xmlns="http://www.w3.org/2000/svg">
<path d="M0.740791 66.3705C0.740791 65.2986 0.852853 64.3923 1.07698 63.6518C1.31084 62.9014 1.71524 62.3314 2.29016 61.9416C2.86509 61.5518 3.67388 61.3569 4.71654 61.3569C5.52533 61.3569 6.19282 61.469 6.71903 61.6931C7.24523 61.9075 7.65449 62.2291 7.94683 62.6578C8.23916 63.0768 8.43893 63.5982 8.54611 64.2218C8.66305 64.8455 8.72151 65.5617 8.72151 66.3705C8.72151 67.1793 8.66305 67.8955 8.54611 68.5191C8.43893 69.133 8.23916 69.6543 7.94683 70.0831C7.65449 70.5021 7.24523 70.8237 6.71903 71.0478C6.19282 71.2622 5.52533 71.3694 4.71654 71.3694C3.67388 71.3694 2.86509 71.1745 2.29016 70.7847C1.71524 70.3949 1.31084 69.8297 1.07698 69.0892C0.852853 68.3486 0.740791 67.4424 0.740791 66.3705ZM2.46556 66.3705C2.46556 67.3254 2.54352 68.066 2.69943 68.5922C2.86509 69.1087 3.1087 69.4741 3.43027 69.6885C3.76158 69.8931 4.18546 69.9954 4.70192 69.9954C5.21838 69.9954 5.64226 69.8931 5.97357 69.6885C6.31463 69.4838 6.56799 69.1184 6.73364 68.5922C6.90904 68.066 6.99674 67.3254 6.99674 66.3705C6.99674 65.4058 6.90904 64.6603 6.73364 64.1341C6.56799 63.5982 6.31463 63.2279 5.97357 63.0232C5.64226 62.8089 5.21838 62.7017 4.70192 62.7017C4.18546 62.7017 3.76158 62.8089 3.43027 63.0232C3.1087 63.2376 2.86509 63.6079 2.69943 64.1341C2.54352 64.6603 2.46556 65.4058 2.46556 66.3705ZM10.3405 71.2524C10.2139 71.2524 10.1505 71.1988 10.1505 71.0917C10.1505 70.0685 10.1505 69.0502 10.1505 68.0368C10.1505 67.0136 10.1505 65.9953 10.1505 64.9819C10.1505 64.8844 10.1798 64.8162 10.2382 64.7772C10.2967 64.7285 10.4185 64.6749 10.6036 64.6165C10.7206 64.5775 10.9057 64.5288 11.1591 64.4703C11.4124 64.4118 11.6804 64.3631 11.963 64.3241C12.2553 64.2754 12.5233 64.251 12.7669 64.251C13.5562 64.251 14.1604 64.4021 14.5794 64.7042C14.9984 65.0062 15.2859 65.4058 15.4418 65.9027C15.6074 66.3997 15.6903 66.9551 15.6903 67.569C15.6903 67.9588 15.6805 68.3583 15.661 68.7676C15.6513 69.1769 15.6318 69.5715 15.6026 69.9516C15.5831 70.3316 15.5587 70.6629 15.5295 70.9455C15.51 71.1014 15.4808 71.194 15.4418 71.2232C15.4125 71.2427 15.3395 71.2524 15.2225 71.2524H14.1994C14.0824 71.2524 13.9996 71.2378 13.9509 71.2086C13.9119 71.1794 13.8973 71.1111 13.907 71.004C13.907 70.9552 13.9168 70.7993 13.9363 70.5362C13.9557 70.2731 13.9752 69.9613 13.9947 69.6008C14.0142 69.2305 14.0288 68.865 14.0386 68.5045C14.0483 68.1342 14.0532 67.8224 14.0532 67.569C14.0532 67.0526 14.0045 66.6482 13.907 66.3558C13.8096 66.0635 13.6634 65.8589 13.4685 65.7419C13.2736 65.6153 13.0251 65.5519 12.7231 65.5519C12.5866 65.5519 12.4551 65.5617 12.3284 65.5812C12.2115 65.6006 12.1043 65.625 12.0068 65.6542C11.9289 65.664 11.8656 65.703 11.8168 65.7712C11.7779 65.8296 11.7584 65.932 11.7584 66.0781C11.7584 66.5361 11.7584 67.0428 11.7584 67.5983C11.7584 68.1537 11.7584 68.7286 11.7584 69.323C11.7584 69.9077 11.7584 70.4972 11.7584 71.0917C11.7584 71.1988 11.7096 71.2524 11.6122 71.2524H10.3405ZM17.0878 71.0917V61.0646C17.0878 60.9574 17.1462 60.9038 17.2632 60.9038H18.5202C18.6371 60.9038 18.6956 60.9574 18.6956 61.0646V71.0917C18.6956 71.1988 18.6371 71.2524 18.5202 71.2524H17.2632C17.1462 71.2524 17.0878 71.1988 17.0878 71.0917ZM21.894 62.4532C21.894 62.7163 21.8404 62.916 21.7332 63.0525C21.6261 63.1791 21.3971 63.2425 21.0463 63.2425C20.7052 63.2425 20.4713 63.1791 20.3447 63.0525C20.2277 62.916 20.1693 62.7163 20.1693 62.4532C20.1693 62.2291 20.2277 62.0488 20.3447 61.9124C20.4713 61.7759 20.7052 61.7077 21.0463 61.7077C21.4165 61.7077 21.6504 61.7759 21.7479 61.9124C21.8453 62.0488 21.894 62.2291 21.894 62.4532ZM21.8502 71.0917C21.8502 71.1988 21.7917 71.2524 21.6748 71.2524H20.4031C20.2959 71.2524 20.2423 71.1988 20.2423 71.0917V64.5141C20.2423 64.4069 20.2959 64.3534 20.4031 64.3534H21.6748C21.7917 64.3534 21.8502 64.4069 21.8502 64.5141V71.0917ZM23.487 71.2524C23.3603 71.2524 23.297 71.1988 23.297 71.0917C23.297 70.0685 23.297 69.0502 23.297 68.0368C23.297 67.0136 23.297 65.9953 23.297 64.9819C23.297 64.8844 23.3262 64.8162 23.3847 64.7772C23.4432 64.7285 23.565 64.6749 23.7501 64.6165C23.8671 64.5775 24.0522 64.5288 24.3056 64.4703C24.5589 64.4118 24.8269 64.3631 25.1095 64.3241C25.4018 64.2754 25.6698 64.251 25.9134 64.251C26.7027 64.251 27.3069 64.4021 27.7259 64.7042C28.1449 65.0062 28.4323 65.4058 28.5882 65.9027C28.7539 66.3997 28.8367 66.9551 28.8367 67.569C28.8367 67.9588 28.827 68.3583 28.8075 68.7676C28.7978 69.1769 28.7783 69.5715 28.749 69.9516C28.7295 70.3316 28.7052 70.6629 28.6759 70.9455C28.6565 71.1014 28.6272 71.194 28.5882 71.2232C28.559 71.2427 28.4859 71.2524 28.369 71.2524H27.3458C27.2289 71.2524 27.1461 71.2378 27.0973 71.2086C27.0584 71.1794 27.0437 71.1111 27.0535 71.004C27.0535 70.9552 27.0632 70.7993 27.0827 70.5362C27.1022 70.2731 27.1217 69.9613 27.1412 69.6008C27.1607 69.2305 27.1753 68.865 27.185 68.5045C27.1948 68.1342 27.1997 67.8224 27.1997 67.569C27.1997 67.0526 27.1509 66.6482 27.0535 66.3558C26.956 66.0635 26.8099 65.8589 26.615 65.7419C26.4201 65.6153 26.1716 65.5519 25.8695 65.5519C25.7331 65.5519 25.6016 65.5617 25.4749 65.5812C25.358 65.6006 25.2508 65.625 25.1533 65.6542C25.0754 65.664 25.012 65.703 24.9633 65.7712C24.9243 65.8296 24.9048 65.932 24.9048 66.0781C24.9048 66.5361 24.9048 67.0428 24.9048 67.5983C24.9048 68.1537 24.9048 68.7286 24.9048 69.323C24.9048 69.9077 24.9048 70.4972 24.9048 71.0917C24.9048 71.1988 24.8561 71.2524 24.7587 71.2524H23.487ZM29.9711 67.7883C29.9711 67.3303 30.015 66.8918 30.1027 66.4728C30.2001 66.0538 30.3609 65.6786 30.585 65.3473C30.8091 65.0062 31.1161 64.7383 31.5059 64.5434C31.9054 64.3485 32.4072 64.251 33.0114 64.251C33.6448 64.251 34.1466 64.3387 34.5169 64.5141C34.897 64.6895 35.1795 64.9283 35.3647 65.2304C35.5596 65.5227 35.6863 65.8491 35.7447 66.2097C35.8129 66.5605 35.847 66.9113 35.847 67.2621C35.847 67.6616 35.8032 67.9198 35.7155 68.0368C35.6278 68.1537 35.4962 68.2122 35.3208 68.2122H31.7397C31.691 68.2122 31.652 68.2219 31.6228 68.2414C31.6033 68.2609 31.5936 68.3096 31.5936 68.3876C31.5936 68.7286 31.6618 69.0356 31.7982 69.3084C31.9444 69.5813 32.149 69.7956 32.4121 69.9516C32.685 70.1075 33.0114 70.1854 33.3914 70.1854C33.713 70.1854 34.0297 70.1367 34.3415 70.0393C34.6533 69.9418 34.8921 69.8492 35.0577 69.7615C35.1649 69.7031 35.2478 69.669 35.3062 69.6592C35.3647 69.6397 35.428 69.6982 35.4962 69.8346L35.774 70.3608C35.8227 70.4583 35.8324 70.5265 35.8032 70.5655C35.7837 70.6044 35.7252 70.6532 35.6278 70.7116C35.3062 70.9357 34.9116 71.1014 34.4438 71.2086C33.9761 71.306 33.5035 71.3548 33.026 71.3548C32.4024 71.3548 31.8908 71.2622 31.4913 71.077C31.0917 70.8919 30.7799 70.6385 30.5558 70.317C30.3414 69.9857 30.1904 69.6056 30.1027 69.1769C30.015 68.7384 29.9711 68.2755 29.9711 67.7883ZM34.21 66.999C34.21 66.7066 34.171 66.4484 34.093 66.2243C34.0248 65.9904 33.8981 65.8102 33.713 65.6835C33.5376 65.5471 33.294 65.4788 32.9822 65.4788C32.7386 65.4788 32.529 65.5276 32.3536 65.625C32.188 65.7127 32.0516 65.8345 31.9444 65.9904C31.8469 66.1366 31.769 66.2974 31.7105 66.4728C31.652 66.6482 31.6131 66.8187 31.5936 66.9844C31.5936 67.1208 31.5985 67.2085 31.6082 67.2475C31.6179 67.2767 31.6618 67.2913 31.7397 67.2913H34.02C34.1077 67.2913 34.1612 67.2767 34.1807 67.2475C34.21 67.2182 34.2197 67.1354 34.21 66.999ZM37.028 70.7555V69.7177C37.028 69.6495 37.0475 69.6154 37.0865 69.6154C37.1352 69.6154 37.2034 69.6349 37.2911 69.6738C37.486 69.7323 37.7101 69.7908 37.9635 69.8492C38.2169 69.898 38.4653 69.9418 38.7089 69.9808C38.9526 70.01 39.1572 70.0246 39.3228 70.0246C39.888 70.0246 40.3119 69.8687 40.5945 69.5569C40.8868 69.2451 41.033 68.8699 41.033 68.4314C41.033 68.0027 40.8966 67.6616 40.6237 67.4082C40.3509 67.1549 39.9562 66.96 39.4398 66.8236C39.1864 66.7554 38.9087 66.6725 38.6066 66.5751C38.3046 66.4679 38.0122 66.3217 37.7296 66.1366C37.4568 65.9417 37.2278 65.6786 37.0426 65.3473C36.8672 65.0062 36.7795 64.5726 36.7795 64.0464C36.7795 63.4033 36.9257 62.8868 37.218 62.497C37.5201 62.0975 37.9099 61.8052 38.3874 61.62C38.8649 61.4349 39.3764 61.3423 39.9221 61.3423C40.1463 61.3423 40.385 61.3667 40.6384 61.4154C40.8917 61.4544 41.1402 61.508 41.3838 61.5762C41.6274 61.6346 41.8418 61.7029 42.0269 61.7808C42.0952 61.8003 42.139 61.8295 42.1585 61.8685C42.178 61.8977 42.1877 61.9416 42.1877 62.0001V62.9502C42.1877 63.1743 42.0513 63.2084 41.7785 63.0525C41.5641 62.9355 41.3107 62.8332 41.0184 62.7455C40.7261 62.6578 40.3996 62.614 40.0391 62.614C39.5713 62.614 39.1913 62.7358 38.899 62.9794C38.6066 63.223 38.4605 63.5348 38.4605 63.9149C38.4605 64.2267 38.5384 64.48 38.6943 64.6749C38.8502 64.8698 39.05 65.0257 39.2936 65.1427C39.547 65.2498 39.8101 65.3424 40.0829 65.4204C40.3655 65.4886 40.6286 65.5617 40.8722 65.6396C41.2815 65.776 41.6274 65.9466 41.91 66.1512C42.1926 66.3558 42.407 66.6287 42.5531 66.9697C42.6993 67.3108 42.7724 67.7542 42.7724 68.2999C42.7724 68.9917 42.6262 69.5666 42.3339 70.0246C42.0416 70.4729 41.6372 70.8091 41.1207 71.0332C40.614 71.2573 40.0196 71.3694 39.3375 71.3694C39.0451 71.3694 38.7089 71.3401 38.3289 71.2817C37.9586 71.2232 37.6176 71.1404 37.3057 71.0332C37.1986 71.004 37.1255 70.9699 37.0865 70.9309C37.0475 70.8919 37.028 70.8334 37.028 70.7555ZM43.935 71.0917C43.935 69.4254 43.935 67.7542 43.935 66.0781C43.935 64.4021 43.935 62.7309 43.935 61.0646C43.935 60.9574 43.9983 60.9038 44.125 60.9038C44.3296 60.9038 44.5391 60.9038 44.7535 60.9038C44.9777 60.9038 45.192 60.9038 45.3967 60.9038C45.5039 60.9038 45.5574 60.9574 45.5574 61.0646C45.5574 61.6005 45.5574 62.1414 45.5574 62.687C45.5574 63.2327 45.5574 63.7736 45.5574 64.3095C45.5574 64.3875 45.5721 64.4362 45.6013 64.4557C45.6403 64.4654 45.6841 64.4605 45.7328 64.4411C45.8595 64.4118 46.0349 64.3777 46.259 64.3387C46.4929 64.29 46.717 64.2657 46.9314 64.2657C47.3504 64.2657 47.7158 64.329 48.0277 64.4557C48.3395 64.5726 48.5977 64.7675 48.8024 65.0403C49.0167 65.3034 49.1775 65.6591 49.2847 66.1074C49.3919 66.5459 49.4552 67.0769 49.4747 67.7006C49.4845 68.1001 49.4796 68.5094 49.4601 68.9284C49.4406 69.3474 49.4114 69.7469 49.3724 70.127C49.3334 70.507 49.2945 70.8383 49.2555 71.1209C49.2457 71.1794 49.2214 71.2183 49.1824 71.2378C49.1434 71.2476 49.0898 71.2524 49.0216 71.2524C48.8365 71.2524 48.6464 71.2524 48.4516 71.2524C48.2567 71.2524 48.0666 71.2524 47.8815 71.2524C47.7451 71.2524 47.6671 71.2378 47.6476 71.2086C47.6379 71.1794 47.6476 71.0917 47.6769 70.9455C47.7256 70.546 47.7597 70.1172 47.7792 69.6592C47.8084 69.1915 47.8279 68.7335 47.8377 68.2852C47.8377 67.8175 47.8133 67.4082 47.7646 67.0574C47.7256 66.7066 47.6525 66.4143 47.5453 66.1804C47.4479 65.9466 47.3163 65.7712 47.1507 65.6542C46.985 65.5373 46.7804 65.4788 46.5368 65.4788C46.4198 65.4788 46.2932 65.4935 46.1567 65.5227C46.0203 65.5422 45.8936 65.5665 45.7767 65.5958C45.7085 65.6153 45.6549 65.6542 45.6159 65.7127C45.5769 65.7614 45.5574 65.8345 45.5574 65.932V71.0917C45.5574 71.1988 45.5039 71.2524 45.3967 71.2524H44.125C43.9983 71.2524 43.935 71.1988 43.935 71.0917ZM53.7398 71.3548C52.9018 71.3548 52.2538 71.1988 51.7958 70.887C51.3476 70.5752 51.0357 70.1513 50.8603 69.6154C50.6849 69.0697 50.5972 68.4558 50.5972 67.7737C50.5972 67.0916 50.6947 66.4874 50.8896 65.9612C51.0845 65.4252 51.4109 65.0062 51.8689 64.7042C52.3269 64.4021 52.9505 64.251 53.7398 64.251C54.5291 64.251 55.1479 64.4021 55.5962 64.7042C56.0541 65.0062 56.3806 65.4252 56.5755 65.9612C56.7801 66.4874 56.8824 67.0916 56.8824 67.7737C56.8824 68.4558 56.7947 69.0697 56.6193 69.6154C56.4439 70.1513 56.1272 70.5752 55.6692 70.887C55.221 71.1988 54.5779 71.3548 53.7398 71.3548ZM53.7106 70.1123C54.2758 70.1123 54.6656 69.9126 54.8799 69.5131C55.1041 69.1038 55.2161 68.5386 55.2161 67.8175C55.2161 67.0867 55.0943 66.5312 54.8507 66.1512C54.6168 65.7712 54.2368 65.5812 53.7106 65.5812C53.2039 65.5812 52.8287 65.7712 52.5851 66.1512C52.3415 66.5312 52.2197 67.0867 52.2197 67.8175C52.2197 68.5484 52.3318 69.1135 52.5559 69.5131C52.78 69.9126 53.1649 70.1123 53.7106 70.1123ZM58.271 72.7141C58.232 72.2854 58.2028 71.7007 58.1833 70.9601C58.1638 70.2195 58.159 69.3133 58.1687 68.2414C58.1687 67.9003 58.1736 67.5301 58.1833 67.1305C58.1931 66.7213 58.2077 66.3266 58.2272 65.9466C58.2564 65.5568 58.2905 65.2352 58.3295 64.9819C58.349 64.8844 58.3831 64.8065 58.4318 64.748C58.4903 64.6895 58.6072 64.6311 58.7826 64.5726C59.0165 64.4946 59.3332 64.4167 59.7327 64.3387C60.142 64.2608 60.5902 64.2218 61.0774 64.2218C62.0226 64.2218 62.7486 64.4995 63.2553 65.055C63.7718 65.6006 64.03 66.4679 64.03 67.6567C64.03 68.1342 63.9861 68.5727 63.8984 68.9722C63.8107 69.362 63.6792 69.7079 63.5038 70.01C63.3284 70.3024 63.1189 70.546 62.8753 70.7409C62.6317 70.9357 62.3442 71.0722 62.0129 71.1501C61.8375 71.2086 61.6329 71.2524 61.399 71.2817C61.1651 71.3109 60.9313 71.3255 60.6974 71.3255C60.4733 71.3255 60.2784 71.3109 60.1127 71.2817C60.025 71.2622 59.9568 71.2524 59.9081 71.2524C59.8691 71.2524 59.8496 71.2865 59.8496 71.3548C59.8496 71.423 59.8447 71.5302 59.835 71.6763C59.835 71.8322 59.8399 71.9881 59.8496 72.1441C59.8594 72.3097 59.8642 72.4461 59.8642 72.5533C59.874 72.6605 59.874 72.7385 59.8642 72.7872C59.8642 72.8359 59.8009 72.8603 59.6742 72.8603H58.4903C58.4221 72.8603 58.3685 72.8505 58.3295 72.831C58.3002 72.8116 58.2808 72.7726 58.271 72.7141ZM59.8204 69.5423C59.8204 69.6202 59.835 69.6738 59.8642 69.7031C59.8935 69.7226 59.9324 69.742 59.9812 69.7615C60.1371 69.8103 60.3076 69.8492 60.4928 69.8785C60.6876 69.9077 60.8582 69.9223 61.0043 69.9223C61.1505 69.9223 61.3015 69.8931 61.4575 69.8346C61.6231 69.7762 61.7742 69.669 61.9106 69.5131C62.0567 69.3571 62.1737 69.133 62.2614 68.8407C62.3491 68.5386 62.3929 68.1391 62.3929 67.6421C62.3929 66.8138 62.2662 66.2487 62.0129 65.9466C61.7693 65.6348 61.4477 65.4788 61.0482 65.4788C60.8533 65.4788 60.6633 65.4935 60.4781 65.5227C60.3027 65.5519 60.1468 65.5909 60.0104 65.6396C59.9812 65.6591 59.9519 65.6835 59.9227 65.7127C59.9032 65.7419 59.8935 65.7809 59.8935 65.8296C59.874 66.0538 59.8594 66.2974 59.8496 66.5605C59.8496 66.8236 59.8447 67.0964 59.835 67.379C59.835 67.6519 59.8301 67.9247 59.8204 68.1975C59.8204 68.4704 59.8204 68.7238 59.8204 68.9576C59.8204 69.1915 59.8204 69.3864 59.8204 69.5423Z" fill="white"/>
<path d="M11.0449 27.2329V38.131C11.0449 49.029 15.4139 53.398 26.3119 53.398H39.3944C50.2925 53.398 54.6614 49.029 54.6614 38.131V27.2329" stroke="white" stroke-width="5.46116" stroke-linecap="round" stroke-linejoin="round"/>
<path d="M32.8646 29.1263C37.3063 29.1263 40.583 25.5098 40.1461 21.0681L38.5442 4.85449H27.2092L25.583 21.0681C25.1461 25.5098 28.4228 29.1263 32.8646 29.1263Z" stroke="white" stroke-width="5.46116" stroke-linecap="round" stroke-linejoin="round"/>
<path d="M48.1793 29.1263C53.0822 29.1263 56.6744 25.1458 56.189 20.2671L55.5094 13.5924C54.6356 7.28168 52.2084 4.85449 45.8492 4.85449H38.4463L40.1453 21.8691C40.5579 25.8739 44.1744 29.1263 48.1793 29.1263Z" stroke="white" stroke-width="5.46116" stroke-linecap="round" stroke-linejoin="round"/>
<path d="M17.4277 29.1263C21.4325 29.1263 25.049 25.8739 25.4374 21.8691L25.9714 16.505L27.1364 4.85449H19.7335C13.3743 4.85449 10.9471 7.28168 10.0733 13.5924L9.41797 20.2671C8.93253 25.1458 12.5248 29.1263 17.4277 29.1263Z" stroke="white" stroke-width="5.46116" stroke-linecap="round" stroke-linejoin="round"/>
<path d="M32.8634 46.6019C26.4488 46.6019 21.2129 42.1514 21.2129 36.699C21.2129 35.7436 22.1449 34.9514 23.2689 34.9514C24.3928 34.9514 25.3248 35.7436 25.3248 36.699C25.3248 40.2407 28.6966 43.1068 32.8634 43.1068C37.0301 43.1068 40.4019 40.2407 40.4019 36.699C40.4019 35.7436 41.334 34.9514 42.4579 34.9514C43.5818 34.9514 44.5139 35.7436 44.5139 36.699C44.5139 42.1514 39.278 46.6019 32.8634 46.6019Z" fill="white"/>
</svg>
