<svg width="94" height="20" viewBox="0 0 94 20" fill="none" xmlns="http://www.w3.org/2000/svg">
<path d="M26.9496 14.2954C26.2074 14.2954 25.5528 14.1328 24.9857 13.8075C24.4186 13.4823 23.9724 13.0361 23.6472 12.4691C23.3303 11.8936 23.1719 11.2432 23.1719 10.5177C23.1719 9.78379 23.3053 9.09997 23.5722 8.46618C23.8474 7.82405 24.2226 7.26114 24.698 6.77746C25.1817 6.29378 25.7404 5.91851 26.3742 5.65165C27.0163 5.37645 27.7001 5.23885 28.4257 5.23885C29.1679 5.23885 29.8225 5.40147 30.3896 5.7267C30.9567 6.05193 31.3986 6.49809 31.7155 7.06516C32.0408 7.63224 32.2034 8.27854 32.2034 9.00406C32.2034 9.73793 32.0658 10.4259 31.7906 11.0681C31.5237 11.7102 31.1485 12.2731 30.6648 12.7568C30.1811 13.2405 29.6224 13.6199 28.9886 13.8951C28.3548 14.1619 27.6751 14.2954 26.9496 14.2954ZM27.1497 12.8568C27.6167 12.8568 28.0546 12.7651 28.4632 12.5816C28.8718 12.3898 29.2304 12.123 29.539 11.7811C29.8559 11.4392 30.1019 11.043 30.277 10.5927C30.4605 10.1424 30.5522 9.6587 30.5522 9.14166C30.5522 8.39112 30.3479 7.79486 29.9393 7.35287C29.5306 6.90255 28.9635 6.67739 28.238 6.67739C27.7627 6.67739 27.3207 6.77329 26.9121 6.96509C26.5034 7.1569 26.1407 7.41959 25.8238 7.75316C25.5152 8.08674 25.2692 8.47868 25.0858 8.92901C24.9106 9.37933 24.8231 9.86302 24.8231 10.3801C24.8231 11.1306 25.0315 11.731 25.4485 12.1814C25.8655 12.6317 26.4326 12.8568 27.1497 12.8568ZM32.7627 14.1453L33.851 7.9408H35.2645L35.227 8.96654C35.4855 8.60794 35.8107 8.32441 36.2027 8.11592C36.5946 7.8991 37.0324 7.79069 37.5161 7.79069C38.1582 7.79069 38.6544 7.96998 39.0047 8.32858C39.3633 8.67883 39.5426 9.18753 39.5426 9.85468C39.5426 10.0882 39.5175 10.3509 39.4675 10.6427L38.8421 14.1453H37.2409L37.8413 10.7929C37.8497 10.6928 37.858 10.601 37.8664 10.5177C37.883 10.4259 37.8914 10.3425 37.8914 10.2675C37.8914 9.51693 37.5203 9.14166 36.7781 9.14166C36.3361 9.14166 35.9441 9.30011 35.6022 9.61701C35.2603 9.92556 35.0393 10.3509 34.9392 10.8929L34.3638 14.1453H32.7627ZM40.3728 14.1453L41.974 5.13878H43.5752L41.974 14.1453H40.3728ZM45.9239 7.01513C45.632 7.01513 45.3902 6.92757 45.1984 6.75244C45.0149 6.56897 44.9232 6.34381 44.9232 6.07695C44.9232 5.81009 45.0149 5.5891 45.1984 5.41397C45.3902 5.23051 45.632 5.13878 45.9239 5.13878C46.2158 5.13878 46.4535 5.23051 46.6369 5.41397C46.8287 5.5891 46.9246 5.81009 46.9246 6.07695C46.9246 6.34381 46.8287 6.56897 46.6369 6.75244C46.4535 6.92757 46.2158 7.01513 45.9239 7.01513ZM43.6973 14.1453L44.7856 7.9408H46.3868L45.2985 14.1453H43.6973ZM47.0063 14.1453L48.0946 7.9408H49.5081L49.4706 8.96654C49.7291 8.60794 50.0544 8.32441 50.4463 8.11592C50.8383 7.8991 51.2761 7.79069 51.7598 7.79069C52.4019 7.79069 52.8981 7.96998 53.2483 8.32858C53.6069 8.67883 53.7862 9.18753 53.7862 9.85468C53.7862 10.0882 53.7612 10.3509 53.7112 10.6427L53.0857 14.1453H51.4846L52.085 10.7929C52.0933 10.6928 52.1017 10.601 52.11 10.5177C52.1267 10.4259 52.135 10.3425 52.135 10.2675C52.135 9.51693 51.7639 9.14166 51.0217 9.14166C50.5798 9.14166 50.1878 9.30011 49.8459 9.61701C49.504 9.92556 49.283 10.3509 49.1829 10.8929L48.6075 14.1453H47.0063ZM57.6062 14.2954C56.7806 14.2954 56.1218 14.0577 55.6297 13.5824C55.1461 13.107 54.9042 12.4649 54.9042 11.656C54.9042 11.1306 54.996 10.6344 55.1794 10.1674C55.3629 9.7004 55.6256 9.29177 55.9675 8.94152C56.3094 8.58293 56.7139 8.30356 57.1809 8.10341C57.6562 7.89493 58.1774 7.79069 58.7445 7.79069C59.2949 7.79069 59.7661 7.8991 60.158 8.11592C60.55 8.32441 60.8502 8.61628 61.0587 8.99155C61.2755 9.35849 61.3839 9.77962 61.3839 10.255C61.3839 10.4551 61.3631 10.6636 61.3214 10.8804C61.288 11.0889 61.2463 11.2724 61.1963 11.4308H56.4804C56.4804 11.4975 56.4804 11.5684 56.4804 11.6435C56.4804 12.0604 56.6055 12.3898 56.8556 12.6317C57.1058 12.8652 57.431 12.9819 57.8313 12.9819C58.1482 12.9819 58.4276 12.911 58.6694 12.7693C58.9196 12.6192 59.1239 12.4274 59.2824 12.1939H60.9086C60.7168 12.5942 60.4541 12.9527 60.1205 13.2696C59.7953 13.5865 59.4158 13.8367 58.9822 14.0202C58.5569 14.2036 58.0982 14.2954 57.6062 14.2954ZM58.5318 9.09163C58.1482 9.09163 57.7855 9.20421 57.4436 9.42937C57.1016 9.64619 56.8515 9.97977 56.693 10.4301H59.7827C59.7911 10.3634 59.7953 10.3175 59.7953 10.2925C59.8036 9.92556 59.691 9.63368 59.4575 9.41686C59.224 9.20004 58.9155 9.09163 58.5318 9.09163ZM65.1829 14.2954C64.6075 14.2954 64.0988 14.2078 63.6568 14.0327C63.2148 13.8492 62.8688 13.5865 62.6186 13.2446C62.3684 12.8944 62.2433 12.4774 62.2433 11.9937C62.2433 11.9103 62.2475 11.8311 62.2558 11.756C62.2642 11.6727 62.2725 11.5893 62.2808 11.5059H63.9821C63.9737 11.5976 63.9696 11.681 63.9696 11.756C63.9696 12.1146 64.0946 12.4065 64.3448 12.6317C64.6033 12.8485 64.9494 12.9569 65.3831 12.9569C65.8668 12.9569 66.2462 12.836 66.5214 12.5942C66.7966 12.344 66.9342 12.0187 66.9342 11.6184C66.9342 11.3182 66.8299 11.0806 66.6215 10.9054C66.413 10.7303 66.1461 10.5844 65.8209 10.4676C65.504 10.3509 65.1704 10.2299 64.8202 10.1049C64.2698 9.90471 63.8486 9.62951 63.5568 9.27926C63.2649 8.92901 63.1189 8.51621 63.1189 8.04087C63.1189 7.48213 63.2607 6.99428 63.5442 6.57731C63.8361 6.15201 64.2322 5.8226 64.7326 5.5891C65.2413 5.3556 65.8251 5.23885 66.4839 5.23885C67.2761 5.23885 67.9141 5.43065 68.3977 5.81426C68.8814 6.19787 69.1233 6.71908 69.1233 7.37789C69.1233 7.43627 69.1191 7.49881 69.1108 7.56553C69.1108 7.63224 69.1066 7.69896 69.0983 7.76567H67.3845C67.3929 7.69062 67.397 7.61973 67.397 7.55302C67.397 7.2945 67.297 7.06933 67.0968 6.87753C66.8967 6.68572 66.6048 6.58982 66.2212 6.58982C65.7959 6.58982 65.4581 6.7024 65.2079 6.92757C64.9661 7.14439 64.8452 7.41959 64.8452 7.75316C64.8452 8.01168 64.9286 8.22016 65.0954 8.37861C65.2622 8.52872 65.4873 8.66215 65.7709 8.7789C66.0544 8.88731 66.3671 9.00406 66.709 9.12915C67.0676 9.25424 67.3929 9.42103 67.6847 9.62951C67.9849 9.82966 68.2226 10.0757 68.3977 10.3675C68.5812 10.6594 68.6729 11.0055 68.6729 11.4058C68.6729 11.9895 68.5228 12.4983 68.2226 12.9319C67.9224 13.3655 67.5096 13.7033 66.9842 13.9451C66.4588 14.1786 65.8584 14.2954 65.1829 14.2954ZM69.6301 14.1453L71.2062 5.13878H72.8074L72.1569 8.89148C72.4154 8.55791 72.7365 8.29105 73.1201 8.0909C73.512 7.89076 73.9415 7.79069 74.4085 7.79069C75.1757 7.79069 75.7261 8.03253 76.0597 8.51621C76.4016 8.99989 76.4934 9.70874 76.3349 10.6427L75.7095 14.1453H74.1083L74.7087 10.7929C74.8005 10.2591 74.7629 9.85051 74.5962 9.56697C74.4294 9.28343 74.1125 9.14166 73.6455 9.14166C73.2035 9.14166 72.8115 9.30011 72.4696 9.61701C72.1277 9.9339 71.9026 10.3759 71.7941 10.943V10.9305L71.2312 14.1453H69.6301ZM80.2674 14.2954C79.7254 14.2954 79.25 14.1745 78.8414 13.9326C78.4328 13.6908 78.1117 13.3655 77.8782 12.9569C77.6531 12.5399 77.5405 12.0646 77.5405 11.5309C77.5405 11.0055 77.6322 10.5177 77.8157 10.0673C78.0075 9.60867 78.2702 9.20838 78.6037 8.86646C78.9457 8.52455 79.3418 8.26186 79.7921 8.0784C80.2424 7.88659 80.7261 7.79069 81.2431 7.79069C81.7935 7.79069 82.2731 7.90744 82.6817 8.14094C83.0986 8.37444 83.4239 8.69551 83.6574 9.10414C83.8909 9.51276 84.0076 9.98811 84.0076 10.5302C84.0076 11.0639 83.9117 11.5601 83.7199 12.0187C83.5281 12.4691 83.2613 12.8652 82.9194 13.2071C82.5858 13.549 82.1897 13.8159 81.731 14.0077C81.2807 14.1995 80.7928 14.2954 80.2674 14.2954ZM80.4801 12.9069C80.8387 12.9069 81.1597 12.8068 81.4433 12.6067C81.7268 12.4065 81.952 12.1355 82.1188 11.7936C82.2856 11.4433 82.369 11.0514 82.369 10.6177C82.369 10.1591 82.2397 9.80464 81.9812 9.55446C81.731 9.30428 81.4266 9.17919 81.068 9.17919C80.7178 9.17919 80.3967 9.27926 80.1048 9.47941C79.8213 9.67955 79.5961 9.95475 79.4293 10.305C79.2625 10.6469 79.1792 11.0347 79.1792 11.4683C79.1792 11.927 79.3042 12.2814 79.5544 12.5316C79.8129 12.7818 80.1215 12.9069 80.4801 12.9069ZM84.3757 16.8973L85.9393 7.9408H87.3778L87.3903 8.82894C87.6405 8.52038 87.9407 8.2702 88.291 8.0784C88.6496 7.88659 89.0749 7.79069 89.5669 7.79069C90.0756 7.79069 90.5176 7.90744 90.8929 8.14094C91.2765 8.37444 91.5725 8.69551 91.781 9.10414C91.9895 9.50442 92.0937 9.95892 92.0937 10.4676C92.0937 11.0013 92.002 11.5017 91.8185 11.9687C91.6434 12.4274 91.3932 12.8318 91.068 13.1821C90.7428 13.5323 90.3592 13.8075 89.9172 14.0077C89.4835 14.1995 89.0124 14.2954 88.5036 14.2954C88.0533 14.2954 87.6614 14.1995 87.3278 14.0077C86.9942 13.8075 86.7524 13.5699 86.6023 13.2947L85.9768 16.8973H84.3757ZM88.4286 12.8944C88.8122 12.8944 89.1541 12.8026 89.4543 12.6192C89.7629 12.4274 90.0047 12.1688 90.1799 11.8436C90.355 11.5184 90.4425 11.1514 90.4425 10.7428C90.4425 10.3008 90.3091 9.9339 90.0423 9.64202C89.7754 9.34181 89.4126 9.1917 88.954 9.1917C88.562 9.1917 88.2118 9.2876 87.9032 9.47941C87.603 9.67121 87.3653 9.9339 87.1902 10.2675C87.0151 10.601 86.9275 10.9763 86.9275 11.3933C86.9275 11.8269 87.0651 12.1855 87.3403 12.4691C87.6155 12.7526 87.9783 12.8944 88.4286 12.8944Z" fill="#11212D"/>
<rect y="0.0294876" width="19.941" height="19.941" rx="9.97052" fill="#11212D"/>
<path d="M5.31909 9.62787V11.9681C5.31909 14.3083 6.25727 15.2465 8.5975 15.2465H11.4068C13.747 15.2465 14.6852 14.3083 14.6852 11.9681V9.62787" stroke="white" stroke-width="1.17272" stroke-linecap="round" stroke-linejoin="round"/>
<path d="M10.0046 10.0344C10.9585 10.0344 11.6621 9.25781 11.5683 8.304L11.2243 4.82232H8.79022L8.44101 8.304C8.34719 9.25781 9.05082 10.0344 10.0046 10.0344Z" stroke="white" stroke-width="1.17272" stroke-linecap="round" stroke-linejoin="round"/>
<path d="M13.2937 10.0344C14.3465 10.0344 15.1179 9.17963 15.0137 8.132L14.8677 6.69867C14.6801 5.34353 14.1589 4.82232 12.7933 4.82232H11.2036L11.5685 8.476C11.6571 9.33599 12.4337 10.0344 13.2937 10.0344Z" stroke="white" stroke-width="1.17272" stroke-linecap="round" stroke-linejoin="round"/>
<path d="M6.68988 10.0344C7.54987 10.0344 8.32647 9.33599 8.40987 8.476L8.52453 7.32412L8.77471 4.82232H7.18503C5.81946 4.82232 5.29825 5.34353 5.11061 6.69867L4.96989 8.132C4.86564 9.17963 5.63703 10.0344 6.68988 10.0344Z" stroke="white" stroke-width="1.17272" stroke-linecap="round" stroke-linejoin="round"/>
<path d="M10.0047 13.7871C8.62727 13.7871 7.50293 12.8314 7.50293 11.6606C7.50293 11.4554 7.70307 11.2853 7.94442 11.2853C8.18578 11.2853 8.38592 11.4554 8.38592 11.6606C8.38592 12.4211 9.10997 13.0366 10.0047 13.0366C10.8995 13.0366 11.6235 12.4211 11.6235 11.6606C11.6235 11.4554 11.8237 11.2853 12.065 11.2853C12.3064 11.2853 12.5065 11.4554 12.5065 11.6606C12.5065 12.8314 11.3822 13.7871 10.0047 13.7871Z" fill="white"/>
</svg>
